<svg width="580" height="400" xmlns="http://www.w3.org/2000/svg" xmlns:xlink="http://www.w3.org/1999/xlink">
 <!-- Created with SVG Editor - http://github.com/mzalive/SVG Editor/ -->
 <g>
  <title>background</title>
  <rect fill="#fff" id="canvas_background" height="402" width="582" y="-1" x="-1"/>
  <g display="none" overflow="visible" y="0" x="0" height="100%" width="100%" id="canvasGrid">
   <rect fill="url(#gridpattern)" stroke-width="0" y="0" x="0" height="100%" width="100%"/>
  </g>
 </g>
 <g>
  <title>Layer 1</title>
  <image href="Kapibara.png" id="svg_1" height="383" width="448" y="8.5" x="66"/>
  <path id="svg_3" d="m110.14493,151.88406l6.95652,8.69565l10.43478,3.47826l9.56522,2.31884l7.53623,4.92754l11.30435,6.66666l11.01449,8.11595l10.72464,6.37681l8.69565,7.53623l30.14493,-7.82609l24.05797,-17.97101l11.88406,-17.39131l7.53623,-25.50724l-3.47826,-24.92754l-22.31884,-2.89855l-15.07247,-6.95652l-4.05797,-3.76812l-3.47826,-9.56521l0.28986,-5.2174l-4.34783,-0.86956l-11.88406,9.27536l-11.5942,0.86957l-11.5942,0.86956l-6.66667,1.44928l-7.53623,2.31884l-11.01449,3.47826l-9.85508,2.89855l-10.43478,2.31884l-9.27536,0.86956l-9.56522,4.63769l-5.50724,6.66666l-2.6087,4.92754l-2.31884,5.7971l-2.6087,6.37681l1.44928,8.4058l3.47826,7.53623l4.92754,4.92754c1.73913,0.38647 3.47826,0.77294 5.21739,1.15942z" stroke-width="1.5" stroke="#000" fill="none"/>
  <path id="svg_4" d="m280.28986,224.05797l-11.88406,-10.14493l-13.91305,-17.97101l-15.65217,-20.28986l-22.31884,16.52174l-29.56522,6.95652l21.15942,20.86957l13.33333,10.72464l9.56522,12.46376l6.66667,13.33334l2.89855,19.71014l-2.02899,11.0145l-8.9855,1.15942l2.02898,3.76811l-12.75362,2.6087l12.17391,4.63768l-8.4058,1.73913l6.95653,2.89855l13.04347,-2.31884l-4.92753,8.69565l11.5942,-4.05797l6.66667,-16.81159c0,0 4.63768,-13.04348 4.63768,-13.33334c0,-0.28985 1.15942,-15.36231 1.15942,-15.36232c0,0.00001 1.15942,-11.01449 1.15942,-11.01449c0,0 8.11594,-11.5942 8.11594,-11.5942c0,0 3.18841,-6.08696 3.18841,-6.08696c0,0 9.85507,-13.33333 3.76811,-6.08695" stroke-width="1.5" stroke="#000" fill="none"/>
  <path id="svg_5" d="m221.15942,231.30435l4.63768,17.3913l1.44928,15.65217l-4.92754,3.18841l-7.53623,1.15942l2.31884,3.76812l-11.5942,3.1884l11.88405,4.05797l-6.95652,1.73913l6.66667,2.89855l11.88406,-1.73913l-3.76812,8.11595l10.43478,-4.05797l4.63768,-8.98551l-1.44927,-20.28986l-6.95652,-13.33333c-3.57488,-4.25121 -7.14976,-8.50241 -10.72464,-12.75362z" stroke-opacity="null" stroke-width="1.5" stroke="#000" fill="none"/>
  <path id="svg_6" d="m348.69565,213.33333l27.53623,24.34783l19.42029,15.07246c0,0 10.43479,13.62319 10.72464,13.62319c0.28986,0 11.88406,14.2029 11.88406,14.2029c0,0 2.89855,4.92754 2.89855,4.92754c0,0 -4.05797,11.88405 -4.05797,11.88405c0,0 -7.24638,7.82609 -7.24638,7.82609c0,0 -3.47826,1.44928 -3.47826,1.44928c0,0 -12.46377,-3.76812 -12.46377,-3.76812c0,0 -2.31884,0.86957 -2.31884,0.86956c0,0.00001 6.08696,5.2174 6.08696,5.2174c0,0 -11.30435,1.15942 -11.30435,1.15942c0,0 -1.44927,2.60869 -1.44928,2.60869c0.00001,0 13.04348,4.34783 13.04348,4.34783c0,0 -10.43478,4.05797 -10.43478,4.05797c0,0 -0.28985,2.6087 -0.28985,2.60869c0,0.00001 12.75362,0.00001 12.75362,0c0,0.00001 11.30435,-2.89854 11.30435,-2.89855c0,0.00001 11.01449,-2.02898 11.01449,-2.02898c0,0 33.62319,-51.5942 33.62319,-51.5942c0,0 -2.02899,-6.08696 -2.02899,-6.08696c0,0 -8.9855,-8.69565 -8.98551,-8.69565c0.00001,0 -6.66666,-9.56522 -6.66666,-9.56522c0,0 0,-8.11594 0,-8.11594c0,0 6.08696,-7.24638 6.08695,-7.24638c0.00001,0 1.44928,-8.4058 1.44928,-8.4058c0,0 -0.57971,-7.82608 -0.57971,-7.82608c0,0 -26.95652,-6.66667 -26.95652,-6.66667c0,0 -17.97101,-3.1884 -17.97102,-3.18841c0.00001,0.00001 -22.31884,1.44928 -22.31884,1.44928c0,0 -17.3913,4.63768 -17.3913,4.63768c0,0 -8.4058,3.76812 -11.88406,5.7971z" stroke-opacity="null" stroke-width="1.5" stroke="#000" fill="none"/>
  <path id="svg_8" d="m282.31884,222.89855l15.65217,9.27536c0,0 15.94203,5.7971 17.10145,5.7971c1.15942,0 33.33334,1.73913 33.33334,1.73913c0,0 20,0 20,0c0,0 8.69565,-1.73913 8.69565,-1.73913c0,0 -28.11594,-24.63768 -28.11594,-24.63768c-2.6087,-1.73913 -16.52174,-9.27536 -16.52174,-9.27536c0,0 -13.91305,-2.60869 -13.91305,-2.6087c0,0.00001 -16.81159,0.86957 -16.81159,0.86957c0,0 -17.68116,9.27536 -17.68116,9.27536c0,0 -12.17391,8.98551 -1.73913,11.30435z" fill-opacity="null" stroke-opacity="null" stroke-width="1.5" stroke="#000" fill="none"/>
  <path id="svg_9" d="m348.405797,95.652174c0,0 16.231884,1.449275 16.231882,1.449275c0.000002,0 8.405799,1.739131 8.405799,2.028986c0,0.289855 11.884058,6.086957 11.884056,6.086956c0.000002,0 13.04348,6.666667 13.043478,6.666667c0.000002,0 8.985509,5.217392 8.985507,5.217391c0.000002,0.000001 15.942031,15.942029 15.942029,15.942029c0.000002,0.000001 14.782611,15.94203 14.782609,15.942029c0.000002,0.000001 8.985509,17.68116 8.985507,17.681159c0.000002,0.000001 0.869567,13.333334 0.869567,13.623189c0,0.289855 1.15942,18.84058 1.159418,18.840579c0.000002,0.000001 -2.608694,11.884059 -2.608696,11.884058c0.000002,0.000001 -25.507244,-5.797101 -25.507246,-5.797101c0.000002,0.000001 -19.130433,-4.05797 -19.130435,-4.057971c0.000002,0.000001 -22.608694,1.449276 -22.608696,1.449275c0.000002,0.000001 -17.681158,4.927537 -17.681159,4.927536c0.000002,0.000001 -11.014491,5.797102 -11.014493,5.797101c0.000002,0.000001 -2.028984,-13.623187 -2.028985,-13.623188c0.000002,0.000001 -4.63768,-23.47826 -4.63768,-23.768115c0,-0.289855 0.289855,-28.405797 0.289855,-28.695652c0,-0.289855 0.57971,-28.985507 1.449275,-30.144928c0.869565,-1.15942 3.188406,-21.449275 3.188406,-21.449275z" fill-opacity="null" stroke-opacity="null" stroke-width="1.5" stroke="#000" fill="none"/>
  <path id="svg_10" d="m256.81159,106.37681l20.86957,-0.57971l16.81159,-1.15942l23.76812,-2.31884c0,0 16.23188,-2.31884 16.52174,-2.31884c0.28985,0 13.33333,-4.92754 13.33333,-4.92754c0,0 -2.89855,24.34783 -2.89855,24.34783c0,0 -1.15942,19.13043 -1.15942,19.13043c0,0 0,27.82609 0,27.82609c0,0 -1.15942,9.85507 -1.15942,9.85507c0,0 5.50725,20 5.50725,20c0,0 1.73913,17.39131 1.73913,17.39131c0,0 -13.33334,-8.11594 -13.33334,-8.11594c0,0 -14.49275,-3.76812 -14.49275,-3.76812c0,0 -10.72464,-0.28985 -10.72464,-0.28986c0,0.00001 -10.43478,0.28986 -10.43478,0.57972c0,0.28985 -19.13043,11.01449 -19.13044,11.01449c0.00001,0 -3.76811,4.92753 -3.76811,4.92753c0,0 -8.98551,-4.34782 -8.98551,-4.34782c0,0 -9.85507,-12.17391 -9.85507,-12.17392c0,0.00001 -14.49275,-18.26086 -14.49275,-18.26086c0,0 -5.79711,-7.53624 -5.79711,-7.53624c0,0 12.46377,-17.3913 12.46377,-17.3913c0,0 8.11594,-26.66667 8.11594,-26.66667c0,0 -0.28985,-5.7971 -2.89855,-25.21739z" fill-opacity="null" stroke-opacity="null" stroke-width="1.5" stroke="#000" fill="none"/>
  <path id="svg_11" d="m405.217391,266.086957l-7.246379,9.565216l-3.478261,1.73913l-13.333333,-3.188406l-2.028985,0.57971l5.507246,4.927536l-13.333333,2.898551l14.202898,5.217391l-10.724638,4.927536l2.028985,2.608696l33.333333,-5.217391l6.086956,-11.594203l-11.014491,-12.463767z" fill-opacity="null" stroke-opacity="null" stroke-width="1.5" stroke="#000" fill="none"/>
 </g>
</svg>